<svg width="30" height="30" viewBox="0 0 30 30" fill="none" xmlns="http://www.w3.org/2000/svg">
<rect width="30" height="30" rx="15" fill="#D01C1C"/>
<path d="M18.458 18.5781V20H11.7178V18.7832L14.9512 15.29C15.2884 14.9072 15.555 14.5745 15.751 14.292C15.9469 14.0094 16.0859 13.7542 16.168 13.5264C16.2546 13.2939 16.2979 13.0729 16.2979 12.8633C16.2979 12.5579 16.2432 12.2913 16.1338 12.0635C16.0244 11.8311 15.8649 11.651 15.6553 11.5234C15.4502 11.3958 15.1973 11.332 14.8965 11.332C14.5638 11.332 14.279 11.4095 14.042 11.5645C13.8096 11.7148 13.6318 11.9245 13.5088 12.1934C13.3903 12.4622 13.3311 12.7699 13.3311 13.1162H11.5195C11.5195 12.5283 11.6562 11.9928 11.9297 11.5098C12.2031 11.0221 12.5951 10.6325 13.1055 10.3408C13.6159 10.0492 14.222 9.90332 14.9238 9.90332C15.6074 9.90332 16.1862 10.0173 16.6602 10.2451C17.1341 10.4684 17.4941 10.7874 17.7402 11.2021C17.9863 11.6169 18.1094 12.1113 18.1094 12.6855C18.1094 13.0046 18.057 13.319 17.9521 13.6289C17.8473 13.9388 17.6992 14.2464 17.5078 14.5518C17.321 14.8525 17.0977 15.1579 16.8379 15.4678C16.5781 15.7777 16.2887 16.0944 15.9697 16.418L14.0283 18.5781H18.458Z" fill="white"/>
</svg>
