<svg width="30" height="30" viewBox="0 0 30 30" fill="none" xmlns="http://www.w3.org/2000/svg">
<rect width="30" height="30" rx="15" fill="#D01C1C"/>
<path d="M13.6934 14.2236H14.7119C15.0719 14.2236 15.3682 14.1621 15.6006 14.0391C15.8376 13.9115 16.013 13.7383 16.127 13.5195C16.2454 13.2962 16.3047 13.0387 16.3047 12.7471C16.3047 12.46 16.2523 12.2116 16.1475 12.002C16.0426 11.7878 15.8831 11.6237 15.6689 11.5098C15.4593 11.3913 15.1904 11.332 14.8623 11.332C14.598 11.332 14.3542 11.3844 14.1309 11.4893C13.9121 11.5941 13.7367 11.7445 13.6045 11.9404C13.4769 12.1318 13.4131 12.362 13.4131 12.6309H11.6016C11.6016 12.0931 11.7428 11.6214 12.0254 11.2158C12.3125 10.8057 12.6999 10.4844 13.1875 10.252C13.6751 10.0195 14.2197 9.90332 14.8213 9.90332C15.4775 9.90332 16.0518 10.0127 16.5439 10.2314C17.0407 10.4456 17.4258 10.7624 17.6992 11.1816C17.9772 11.6009 18.1162 12.1204 18.1162 12.7402C18.1162 13.0365 18.0456 13.3327 17.9043 13.6289C17.7676 13.9206 17.5648 14.1849 17.2959 14.4219C17.0316 14.6543 16.7057 14.8434 16.3184 14.9893C15.9355 15.1305 15.4958 15.2012 14.999 15.2012H13.6934V14.2236ZM13.6934 15.6182V14.6543H14.999C15.5596 14.6543 16.0449 14.7204 16.4551 14.8525C16.8698 14.9801 17.2116 15.1624 17.4805 15.3994C17.7493 15.6318 17.9476 15.903 18.0752 16.2129C18.2074 16.5228 18.2734 16.8555 18.2734 17.2109C18.2734 17.6758 18.1868 18.0905 18.0137 18.4551C17.8405 18.8151 17.5967 19.1204 17.2822 19.3711C16.9723 19.6217 16.6077 19.8132 16.1885 19.9453C15.7692 20.0729 15.3158 20.1367 14.8281 20.1367C14.4043 20.1367 13.9919 20.0798 13.5908 19.9658C13.1943 19.8473 12.8366 19.6719 12.5176 19.4395C12.1986 19.2025 11.9456 18.9062 11.7588 18.5508C11.5719 18.1908 11.4785 17.7738 11.4785 17.2998H13.29C13.29 17.5732 13.3561 17.8171 13.4883 18.0312C13.625 18.2454 13.8118 18.4141 14.0488 18.5371C14.2904 18.6556 14.5615 18.7148 14.8623 18.7148C15.195 18.7148 15.4798 18.6556 15.7168 18.5371C15.9583 18.4141 16.1429 18.2409 16.2705 18.0176C16.3981 17.7897 16.4619 17.5186 16.4619 17.2041C16.4619 16.8304 16.3913 16.5273 16.25 16.2949C16.1087 16.0625 15.9059 15.8916 15.6416 15.7822C15.3818 15.6729 15.0719 15.6182 14.7119 15.6182H13.6934Z" fill="white"/>
</svg>
