<svg width="165" height="45" viewBox="0 0 165 45" fill="none" xmlns="http://www.w3.org/2000/svg">
<path d="M28.9492 9.80859C29.0898 10.1836 29.043 10.5117 28.8086 10.793C28.5977 11.0508 28.375 11.2383 28.1406 11.3555C27.7188 11.5664 27.2031 11.707 26.5938 11.7773C26.0078 11.8477 25.4805 11.9766 25.0117 12.1641C24.7539 12.2813 24.5547 12.4336 24.4141 12.6211C24.2734 12.7852 24.0742 12.9023 23.8164 12.9727C22.9961 12.9727 22.1758 12.9609 21.3555 12.9375C20.5586 12.9141 19.7266 12.9375 18.8594 13.0078C18.6953 13.0312 18.5312 13.0781 18.3672 13.1484C18.2031 13.1953 18.0391 13.2188 17.875 13.2188C17.6641 13.2188 17.4414 13.1836 17.207 13.1133C16.9961 13.043 16.7734 13.0312 16.5391 13.0781C16.4219 13.1016 16.3164 13.1602 16.2227 13.2539C16.1523 13.3242 16.0586 13.4063 15.9414 13.5C15.5195 13.7578 15.0508 14.0156 14.5352 14.2734C14.0195 14.5078 13.5391 14.7773 13.0938 15.082C12.6953 15.3633 12.3555 15.7266 12.0742 16.1719C11.793 16.5938 11.5 17.0391 11.1953 17.5078C11.1016 17.6719 10.9961 17.8359 10.8789 18C10.7852 18.1406 10.7148 18.2695 10.668 18.3867C10.6211 18.5273 10.5977 18.6914 10.5977 18.8789C10.6211 19.043 10.6094 19.2188 10.5625 19.4062C10.5156 19.6875 10.457 19.9922 10.3867 20.3203C10.3164 20.6484 10.2227 20.9531 10.1055 21.2344C9.98828 21.5391 9.85938 21.8438 9.71875 22.1484C9.60156 22.4297 9.51953 22.7109 9.47266 22.9922C9.42578 23.3203 9.39062 23.6484 9.36719 23.9766C9.36719 24.2812 9.30859 24.6094 9.19141 24.9609C9.12109 25.2656 9.03906 25.5703 8.94531 25.875C8.875 26.1562 8.82812 26.4609 8.80469 26.7891C8.78125 27.3281 8.81641 27.8555 8.91016 28.3711C9.00391 28.8633 9.05078 29.3789 9.05078 29.918C9.44922 30.3867 9.8125 30.8438 10.1406 31.2891C10.4922 31.7109 10.9492 32.0156 11.5117 32.2031C11.7227 32.2734 11.957 32.3086 12.2148 32.3086C12.4727 32.3086 12.7422 32.2969 13.0234 32.2734C13.3047 32.2266 13.5859 32.1914 13.8672 32.168C14.1719 32.1211 14.4648 32.1094 14.7461 32.1328C14.957 32.1562 15.1211 32.2031 15.2383 32.2734C15.3789 32.3203 15.5078 32.3672 15.625 32.4141C15.7656 32.4609 15.9062 32.5078 16.0469 32.5547C16.2109 32.6016 16.3984 32.6133 16.6094 32.5898C17.0078 32.5664 17.4062 32.543 17.8047 32.5195C18.2031 32.4961 18.6016 32.4609 19 32.4141C19.6328 32.3672 20.207 32.25 20.7227 32.0625C21.2617 31.875 21.7773 31.6992 22.2695 31.5352C22.3867 31.4883 22.5039 31.4648 22.6211 31.4648C22.7383 31.4648 22.8555 31.4414 22.9727 31.3945C23.1602 31.3242 23.3242 31.2422 23.4648 31.1484C23.6289 31.0547 23.8164 30.9609 24.0273 30.8672C24.2383 30.75 24.4492 30.6328 24.6602 30.5156C24.8945 30.3984 25.0703 30.3633 25.1875 30.4102C25.3516 30.457 25.4453 30.6211 25.4688 30.9023C25.5156 31.1602 25.5273 31.3242 25.5039 31.3945C25.457 31.5586 25.3281 31.6992 25.1172 31.8164C24.9062 31.9336 24.6953 32.0859 24.4844 32.2734C24.25 32.4375 24.0508 32.5898 23.8867 32.7305C23.7227 32.8711 23.5586 33 23.3945 33.1172C22.9961 33.3984 22.5742 33.6562 22.1289 33.8906C21.707 34.125 21.3203 34.3594 20.9688 34.5938C20.6406 34.7812 20.3711 34.9805 20.1602 35.1914C19.9492 35.3789 19.6797 35.5312 19.3516 35.6484C19 35.7891 18.6016 35.8828 18.1562 35.9297C17.7109 35.9531 17.3242 36.0234 16.9961 36.1406C16.7383 36.2344 16.5391 36.3633 16.3984 36.5273C16.2812 36.7148 16.0586 36.8555 15.7305 36.9492C15.1211 37.1602 14.4766 37.2891 13.7969 37.3359C13.1172 37.3828 12.4023 37.3594 11.6523 37.2656C10.5273 37.1016 9.41406 36.8203 8.3125 36.4219C7.23438 36.0469 6.27344 35.625 5.42969 35.1562C5.3125 34.8281 5.10156 34.5703 4.79688 34.3828C4.49219 34.1953 4.24609 33.9492 4.05859 33.6445C3.80078 33.3164 3.57812 32.9766 3.39062 32.625C3.22656 32.25 2.94531 31.9453 2.54688 31.7109C2.64062 31.1484 2.55859 30.7148 2.30078 30.4102C2.04297 30.082 1.78516 29.7773 1.52734 29.4961C1.26953 28.5352 1.09375 27.5273 1 26.4727C0.929688 25.418 1.01172 24.375 1.24609 23.3438C1.29297 23.1562 1.35156 22.9922 1.42188 22.8516C1.51562 22.7109 1.58594 22.5586 1.63281 22.3945C1.70312 22.1836 1.75 21.9609 1.77344 21.7266C1.79688 21.4922 1.83203 21.2812 1.87891 21.0938C2.08984 20.3203 2.37109 19.6172 2.72266 18.9844C3.07422 18.3281 3.44922 17.6836 3.84766 17.0508C4.03516 16.7695 4.22266 16.5117 4.41016 16.2773C4.62109 16.043 4.83203 15.7852 5.04297 15.5039C5.13672 15.3867 5.21875 15.2695 5.28906 15.1523C5.38281 15.0117 5.48828 14.8828 5.60547 14.7656C5.79297 14.5781 6.00391 14.4258 6.23828 14.3086C6.47266 14.168 6.68359 14.0039 6.87109 13.8164C7.12891 13.5117 7.31641 13.1484 7.43359 12.7266C7.57422 12.2813 7.77344 11.9062 8.03125 11.6016C8.07812 11.5312 8.16016 11.4492 8.27734 11.3555C8.41797 11.2617 8.55859 11.168 8.69922 11.0742C8.86328 10.9805 9.01562 10.8984 9.15625 10.8281C9.32031 10.7344 9.44922 10.6641 9.54297 10.6172C10.0352 10.3828 10.5391 10.2422 11.0547 10.1953C11.5938 10.125 12.168 9.99609 12.7773 9.80859C13.1289 9.69141 13.4922 9.57422 13.8672 9.45703C14.2422 9.33984 14.5938 9.25781 14.9219 9.21094C15.4609 9.11719 16.082 9.05859 16.7852 9.03516C17.4883 9.01172 18.1445 9.05859 18.7539 9.17578C18.8477 9.19922 18.9297 9.23437 19 9.28125C19.0703 9.30469 19.1641 9.32813 19.2812 9.35156C19.5391 9.39844 19.7852 9.39844 20.0195 9.35156C20.2773 9.30469 20.5117 9.30469 20.7227 9.35156C20.8398 9.375 20.9453 9.42188 21.0391 9.49219C21.1328 9.53906 21.25 9.57422 21.3906 9.59766C21.5078 9.64453 21.6367 9.66797 21.7773 9.66797C21.918 9.64453 22.0586 9.65625 22.1992 9.70312C22.3398 9.75 22.4922 9.80859 22.6562 9.87891C22.8203 9.92578 22.9727 9.97266 23.1133 10.0195C23.4414 10.0664 23.793 10.0898 24.168 10.0898C24.543 10.0898 24.8945 10.0781 25.2227 10.0547C25.8555 10.0078 26.4766 9.92578 27.0859 9.80859C27.6953 9.69141 28.3164 9.69141 28.9492 9.80859ZM33.1328 19.9688C33.5781 19.6641 33.9648 19.3125 34.293 18.9141C34.6211 18.5156 34.9375 18.1172 35.2422 17.7188C35.4297 17.7422 35.5938 17.707 35.7344 17.6133C35.875 17.5195 36.0273 17.4492 36.1914 17.4023C36.5195 17.3086 36.8477 17.3203 37.1758 17.4375C37.5273 17.5312 37.8672 17.5664 38.1953 17.543C38.5938 17.4961 38.9688 17.3906 39.3203 17.2266C39.6953 17.0625 40.1289 16.9805 40.6211 16.9805C40.7852 16.9805 40.9375 17.0391 41.0781 17.1562C41.2188 17.25 41.3594 17.3086 41.5 17.332C41.6875 17.3789 41.8516 17.3555 41.9922 17.2617C42.1562 17.168 42.332 17.1211 42.5195 17.1211C42.8477 17.1211 43.0938 17.2266 43.2578 17.4375C43.4453 17.6484 43.6562 17.8594 43.8906 18.0703C44.0078 18.6094 44.0195 19.1367 43.9258 19.6523C43.832 20.168 43.8086 20.6953 43.8555 21.2344C43.9023 21.5859 43.9492 21.9258 43.9961 22.2539C44.0664 22.582 44.1016 22.9219 44.1016 23.2734C44.125 23.5781 44.1016 23.9062 44.0312 24.2578C43.9844 24.5859 43.9727 24.9141 43.9961 25.2422C44.0195 25.3594 44.0547 25.4766 44.1016 25.5938C44.1484 25.7109 44.1602 25.8281 44.1367 25.9453C44.0898 26.2031 43.9844 26.4023 43.8203 26.543C43.6562 26.6836 43.5625 26.8711 43.5391 27.1055C43.4922 27.457 43.5625 27.7852 43.75 28.0898C43.9609 28.3945 44.0898 28.7109 44.1367 29.0391C44.1602 29.1797 44.1484 29.332 44.1016 29.4961C44.0547 29.6602 44.0312 29.8125 44.0312 29.9531C43.9844 30.4688 43.9844 31.043 44.0312 31.6758C44.1016 32.3086 44.1484 32.8945 44.1719 33.4336C44.1719 33.6211 44.1836 33.8086 44.207 33.9961C44.2539 34.1836 44.2539 34.3359 44.207 34.4531C44.1836 34.5703 44.125 34.6641 44.0312 34.7344C43.9609 34.8047 43.9023 34.8867 43.8555 34.9805C43.832 35.0977 43.832 35.2617 43.8555 35.4727C43.9023 35.6836 43.9258 35.8828 43.9258 36.0703C43.9258 36.2344 43.9141 36.3867 43.8906 36.5273C43.8672 36.6914 43.8555 36.832 43.8555 36.9492C43.8789 37.0195 43.9023 37.0898 43.9258 37.1602C43.9727 37.2539 43.9844 37.3359 43.9609 37.4062C43.9141 37.6172 43.75 37.8398 43.4688 38.0742C43.2109 38.332 42.9414 38.4492 42.6602 38.4258C42.5195 38.4023 42.3086 38.2852 42.0273 38.0742C41.7695 37.8867 41.582 37.7344 41.4648 37.6172C41.2539 37.3594 41.125 37.0312 41.0781 36.6328C41.0312 36.2344 40.9258 35.8711 40.7617 35.543C40.6914 35.4258 40.5859 35.3203 40.4453 35.2266C40.3281 35.1094 40.2227 34.9805 40.1289 34.8398C39.9883 34.582 39.8945 34.3242 39.8477 34.0664C39.8008 33.7852 39.7656 33.5156 39.7422 33.2578C39.7422 32.9766 39.7305 32.707 39.707 32.4492C39.6836 32.168 39.625 31.8867 39.5312 31.6055C39.4844 31.5117 39.4141 31.4297 39.3203 31.3594C39.2266 31.2891 39.1445 31.1953 39.0742 31.0781C38.9336 30.8438 38.8398 30.6445 38.793 30.4805C38.7461 30.3164 38.5938 30.1875 38.3359 30.0938C37.5156 30.0938 36.6836 30.0703 35.8398 30.0234C35.0195 29.9766 34.2109 30 33.4141 30.0938C33.2266 30.1172 33.0625 30.1641 32.9219 30.2344C32.7812 30.2812 32.6172 30.3164 32.4297 30.3398C32.3359 30.3398 32.2422 30.3281 32.1484 30.3047C32.0547 30.2812 31.9727 30.2695 31.9023 30.2695C31.5742 30.3164 31.2578 30.4688 30.9531 30.7266C30.6484 30.9609 30.4141 31.1953 30.25 31.4297C30.1562 31.5703 30.0977 31.7461 30.0742 31.957C30.0742 32.1445 30.0391 32.332 29.9688 32.5195C29.8984 32.707 29.7812 32.8828 29.6172 33.0469C29.4531 33.1875 29.3945 33.375 29.4414 33.6094C29.1836 33.7969 28.9609 34.0312 28.7734 34.3125C28.6094 34.5938 28.4453 34.8867 28.2812 35.1914C28.1172 35.4727 27.9297 35.7422 27.7188 36C27.5312 36.2578 27.2969 36.4453 27.0156 36.5625C26.8984 36.6094 26.7812 36.668 26.6641 36.7383C26.5703 36.8086 26.4648 36.8438 26.3477 36.8438C26.2305 36.8203 26.1602 36.7852 26.1367 36.7383C26.1367 36.6914 26.0664 36.6211 25.9258 36.5273C25.7852 36.4336 25.6211 36.3281 25.4336 36.2109C25.2227 36.0938 25.0234 35.9648 24.8359 35.8242C24.6484 35.6836 24.4844 35.543 24.3438 35.4023C24.1797 35.2383 24.0625 35.0859 23.9922 34.9453C23.8047 34.5469 23.7695 34.2656 23.8867 34.1016C24.0039 33.9141 24.1562 33.6914 24.3438 33.4336C24.6016 33.0586 24.8945 32.6367 25.2227 32.168C25.5508 31.6992 25.8438 31.2539 26.1016 30.832C26.2422 30.5977 26.3594 30.375 26.4531 30.1641C26.5703 29.9531 26.7109 29.7539 26.875 29.5664C27.0625 29.3086 27.2969 29.0977 27.5781 28.9336C27.8828 28.7695 28.0938 28.5586 28.2109 28.3008C28.2578 28.1836 28.2812 28.0664 28.2812 27.9492C28.2812 27.8086 28.3047 27.668 28.3516 27.5273C28.5391 27.0586 28.832 26.6367 29.2305 26.2617C29.6289 25.8867 29.9336 25.4648 30.1445 24.9961C30.1914 24.8789 30.2148 24.7734 30.2148 24.6797C30.2383 24.5625 30.2734 24.4453 30.3203 24.3281C30.6953 23.4609 31.1523 22.6875 31.6914 22.0078C32.2539 21.3281 32.7344 20.6484 33.1328 19.9688ZM38.0547 19.8633C37.7734 20.0742 37.5273 20.3203 37.3164 20.6016C37.1289 20.8594 36.8711 21.0586 36.543 21.1992C36.4492 21.4102 36.332 21.6094 36.1914 21.7969C36.0742 21.9844 35.9102 22.1367 35.6992 22.2539C35.6289 22.6289 35.4883 22.957 35.2773 23.2383C35.0664 23.4961 34.8672 23.7539 34.6797 24.0117C34.5859 24.1055 34.5039 24.2109 34.4336 24.3281C34.3633 24.4219 34.2812 24.5273 34.1875 24.6445C34.0703 24.7617 33.9531 24.8555 33.8359 24.9258C33.7188 24.9727 33.6133 25.043 33.5195 25.1367C33.3789 25.3242 33.2266 25.582 33.0625 25.9102C32.8984 26.2383 32.7461 26.5078 32.6055 26.7188C32.4883 26.8359 32.3711 26.9531 32.2539 27.0703C32.1367 27.1875 32.1016 27.3398 32.1484 27.5273C32.2188 27.7148 32.3594 27.8438 32.5703 27.9141C32.7812 27.9609 33.0156 27.9961 33.2734 28.0195C33.5547 28.0195 33.8242 28.0078 34.082 27.9844C34.3398 27.9609 34.5508 27.9492 34.7148 27.9492C35.043 27.9492 35.3711 27.9609 35.6992 27.9844C36.0508 27.9844 36.3789 27.9727 36.6836 27.9492C37.0117 27.9258 37.293 27.8672 37.5273 27.7734C37.7852 27.6797 37.9844 27.5391 38.125 27.3516C38.3594 26.6016 38.418 25.8516 38.3008 25.1016C38.1836 24.3281 38.0781 23.5664 37.9844 22.8164C37.9375 22.6055 37.9023 22.3711 37.8789 22.1133C37.8555 21.8555 37.8555 21.6211 37.8789 21.4102C37.9023 21.1758 37.9727 20.9531 38.0898 20.7422C38.2305 20.5078 38.2539 20.2383 38.1602 19.9336L38.0547 19.8633ZM61.5039 17.6484C61.6914 17.6953 61.8789 17.7188 62.0664 17.7188C62.2539 17.7188 62.4414 17.7422 62.6289 17.7891C62.6992 17.7891 62.7695 17.8125 62.8398 17.8594C62.9102 17.9062 62.9805 17.9414 63.0508 17.9648C63.1211 17.9883 63.1914 17.9883 63.2617 17.9648C63.332 17.9414 63.4023 17.9414 63.4727 17.9648C64.0117 18.1055 64.4453 18.3281 64.7734 18.6328C65.1016 18.9141 65.4297 19.2656 65.7578 19.6875C65.8984 19.9219 66.0742 20.2031 66.2852 20.5312C66.4961 20.8359 66.6719 21.1875 66.8125 21.5859C66.9531 21.9609 67.0352 22.3594 67.0586 22.7812C67.082 23.2031 67 23.625 66.8125 24.0469C66.7656 24.1641 66.6953 24.3164 66.6016 24.5039C66.5078 24.668 66.4141 24.8438 66.3203 25.0312C66.1797 25.2891 66.0039 25.5586 65.793 25.8398C65.582 26.1211 65.3594 26.3203 65.125 26.4375C64.9375 26.5547 64.7734 26.6602 64.6328 26.7539C64.5156 26.8477 64.3633 26.9414 64.1758 27.0352C63.8477 27.1523 63.5195 27.3281 63.1914 27.5625C62.8867 27.7734 62.5703 27.9492 62.2422 28.0898C62.125 28.1367 61.9961 28.1719 61.8555 28.1953C61.7383 28.1953 61.6211 28.2188 61.5039 28.2656C61.3398 28.3594 61.2109 28.4883 61.1172 28.6523C61.0234 28.8164 60.8477 28.9336 60.5898 29.0039C61.1758 29.1445 61.7148 29.4727 62.207 29.9883C62.6992 30.4805 63.0742 30.9961 63.332 31.5352C63.4492 31.8633 63.6133 32.1562 63.8242 32.4141C64.0352 32.6719 64.1289 32.9648 64.1055 33.293C64.2695 33.4336 64.3984 33.6211 64.4922 33.8555C64.6094 34.0664 64.7031 34.3008 64.7734 34.5586C64.8438 34.8164 64.9023 35.0859 64.9492 35.3672C65.0195 35.625 65.1016 35.8594 65.1953 36.0703C65.3359 36.375 65.4883 36.6211 65.6523 36.8086C65.8164 37.0195 65.9922 37.207 66.1797 37.3711C66.3672 37.5586 66.5547 37.7461 66.7422 37.9336C66.9297 38.1445 67.0938 38.4023 67.2344 38.707C67.3281 38.6836 67.3984 38.6484 67.4453 38.6016C67.5156 38.5781 67.6094 38.5781 67.7266 38.6016C68.0781 38.8594 68.4648 39.0586 68.8867 39.1992C69.332 39.3398 69.8711 39.457 70.5039 39.5508C71.043 39.6445 71.5469 39.668 72.0156 39.6211C72.5078 39.5977 73.0117 39.5391 73.5273 39.4453C73.6914 39.4219 73.8906 39.3516 74.125 39.2344C74.3828 39.1406 74.6289 39.0586 74.8633 38.9883C75.1211 38.918 75.3438 38.8828 75.5312 38.8828C75.7188 38.9062 75.8125 39.0352 75.8125 39.2695C75.8125 39.4336 75.707 39.6328 75.4961 39.8672C75.2852 40.1016 75.0977 40.2773 74.9336 40.3945C74.5352 40.6758 74.0781 40.8984 73.5625 41.0625C73.0469 41.2266 72.5078 41.3555 71.9453 41.4492C71.3828 41.5664 70.8086 41.6484 70.2227 41.6953C69.6367 41.7422 69.0859 41.7773 68.5703 41.8008C68.2422 41.8008 67.9375 41.7422 67.6562 41.625C67.3984 41.5312 67.1641 41.4609 66.9531 41.4141C66.4844 41.3438 66.0625 41.2617 65.6875 41.168C65.3359 41.0742 64.9961 40.9336 64.668 40.7461C64.3867 40.582 64.1406 40.3477 63.9297 40.043C63.7188 39.7617 63.4258 39.5859 63.0508 39.5156C62.4414 38.9766 61.832 38.4258 61.2227 37.8633C60.6133 37.3242 60.1328 36.6445 59.7812 35.8242C59.6641 35.6133 59.5352 35.4141 59.3945 35.2266C59.2539 35.0156 59.1484 34.793 59.0781 34.5586C59.0078 34.3945 58.9609 34.2188 58.9375 34.0312C58.9375 33.8438 58.9141 33.6328 58.8672 33.3984C58.8203 33.1406 58.75 32.8711 58.6562 32.5898C58.5625 32.2852 58.4688 32.0039 58.375 31.7461C58.3516 31.6758 58.3164 31.6055 58.2695 31.5352C58.2227 31.4648 58.1875 31.3945 58.1641 31.3242C58.1172 31.1836 58.0703 31.0195 58.0234 30.832C57.9766 30.6211 57.8945 30.457 57.7773 30.3398C57.6602 30.2461 57.4609 30.1406 57.1797 30.0234C56.9219 29.9062 56.6992 29.8242 56.5117 29.7773C56.2539 29.7305 55.9961 29.7422 55.7383 29.8125C55.5039 29.8828 55.2812 29.9297 55.0703 29.9531C54.7656 30 54.4727 30.0117 54.1914 29.9883C53.9102 29.9414 53.6758 29.9531 53.4883 30.0234C53.1602 30.1406 52.8906 30.4453 52.6797 30.9375C52.4688 31.4297 52.3398 31.9453 52.293 32.4844C52.1992 33.0234 52.0586 33.5508 51.8711 34.0664C51.6836 34.5586 51.5312 35.0391 51.4141 35.5078C51.3203 35.8125 51.168 36.0586 50.957 36.2461C50.7461 36.457 50.4531 36.5391 50.0781 36.4922C49.8906 36.4688 49.7383 36.4453 49.6211 36.4219C49.5273 36.4219 49.3984 36.375 49.2344 36.2812C49.1172 36.3281 48.9062 36.4336 48.6016 36.5977C48.3203 36.7852 48.1211 36.9141 48.0039 36.9844C47.2305 37.2188 46.7852 37.1602 46.668 36.8086C46.5742 36.457 46.6211 35.8945 46.8086 35.1211C46.9258 34.6289 47.1016 34.1484 47.3359 33.6797C47.5938 33.2109 47.7695 32.8125 47.8633 32.4844C47.9102 32.2734 47.9219 32.0859 47.8984 31.9219C47.8984 31.7344 47.8867 31.5586 47.8633 31.3945C47.8398 31.2305 47.8281 31.0898 47.8281 30.9727C47.8281 30.832 47.875 30.7031 47.9688 30.5859C47.9922 30.3281 48.0625 30.1289 48.1797 29.9883C48.2969 29.8242 48.3789 29.6133 48.4258 29.3555C48.4727 29.1211 48.5312 28.875 48.6016 28.6172C48.6719 28.3594 48.7188 28.1133 48.7422 27.8789C48.7656 27.5977 48.7773 27.3398 48.7773 27.1055C48.8008 26.8477 48.8828 26.5547 49.0234 26.2266C49.1406 25.9219 49.2578 25.6172 49.375 25.3125C49.5156 24.9844 49.6094 24.668 49.6562 24.3633C49.7031 24.1289 49.7266 23.8945 49.7266 23.6602C49.75 23.4023 49.8086 23.1562 49.9023 22.9219C49.9492 22.7344 50.043 22.582 50.1836 22.4648C50.3477 22.3477 50.4531 22.1953 50.5 22.0078C50.5234 21.8672 50.5117 21.7383 50.4648 21.6211C50.418 21.5039 50.418 21.3867 50.4648 21.2695C50.6055 20.8008 50.6523 20.4375 50.6055 20.1797C50.5586 19.8984 50.4766 19.6758 50.3594 19.5117C50.2656 19.3242 50.1719 19.1484 50.0781 18.9844C50.0078 18.8203 50.0078 18.5977 50.0781 18.3164C50.1953 18.293 50.3008 18.1992 50.3945 18.0352C50.4883 17.8477 50.6172 17.7305 50.7812 17.6836C50.875 17.6602 51.0508 17.6484 51.3086 17.6484C51.5664 17.625 51.8477 17.6133 52.1523 17.6133C52.457 17.5898 52.75 17.5898 53.0312 17.6133C53.3125 17.6133 53.5352 17.6133 53.6992 17.6133C53.8867 17.6367 54.1211 17.6367 54.4023 17.6133C54.6836 17.5664 54.9766 17.543 55.2812 17.543C55.5859 17.5195 55.8672 17.5078 56.125 17.5078C56.4062 17.5078 56.6406 17.5547 56.8281 17.6484H61.5039ZM56.1602 26.6133C56.3477 26.6133 56.5234 26.5664 56.6875 26.4727C56.875 26.3789 57.0508 26.3555 57.2148 26.4023C57.4492 26.4492 57.6836 26.4844 57.918 26.5078C58.1523 26.5312 58.4102 26.5664 58.6914 26.6133C58.8086 26.6367 58.9258 26.625 59.043 26.5781C59.1602 26.5312 59.3125 26.5195 59.5 26.543C59.875 26.2617 60.2031 26.0508 60.4844 25.9102C60.7891 25.7695 61.0703 25.4883 61.3281 25.0664C61.4453 24.8555 61.5742 24.6562 61.7148 24.4688C61.8555 24.2578 61.9492 24.082 61.9961 23.9414C62.1602 23.4023 62.1367 22.9453 61.9258 22.5703C61.7148 22.1719 61.5156 21.8203 61.3281 21.5156C61.0938 21.1641 60.8711 20.918 60.6602 20.7773C60.4492 20.6133 60.0977 20.5547 59.6055 20.6016C59.207 20.625 58.7969 20.625 58.375 20.6016C57.9531 20.5547 57.543 20.543 57.1445 20.5664C56.7695 20.5898 56.4297 20.6602 56.125 20.7773C55.8203 20.8945 55.5977 21.1055 55.457 21.4102C55.3398 21.7617 55.1992 22.1484 55.0352 22.5703C54.8711 22.9922 54.7188 23.4258 54.5781 23.8711C54.4375 24.293 54.3203 24.7266 54.2266 25.1719C54.1328 25.6172 54.0859 26.0508 54.0859 26.4727C54.4375 26.4258 54.7891 26.4492 55.1406 26.543C55.4922 26.6133 55.832 26.6367 56.1602 26.6133Z" fill="#E8DBDB"/>
<path d="M92.8662 5.68359C92.9313 5.85286 92.9118 5.99609 92.8076 6.11328C92.7165 6.23047 92.6058 6.32161 92.4756 6.38672C92.1761 6.55599 91.8506 6.69922 91.499 6.81641C91.1475 6.92057 90.8219 7.0638 90.5225 7.24609C90.3402 7.35026 90.1774 7.47396 90.0342 7.61719C89.891 7.76042 89.7087 7.87109 89.4873 7.94922C89.266 8.01432 89.0186 8.05339 88.7451 8.06641C88.4847 8.07943 88.2113 8.09896 87.9248 8.125C87.6253 8.15104 87.3324 8.19661 87.0459 8.26172C86.7594 8.32682 86.499 8.34635 86.2646 8.32031C86.1605 8.30729 86.0498 8.28776 85.9326 8.26172C85.8154 8.22266 85.7048 8.19661 85.6006 8.18359C85.4964 8.17057 85.3792 8.17708 85.249 8.20312C85.1188 8.22917 84.9951 8.2487 84.8779 8.26172C84.7998 8.27474 84.7152 8.27474 84.624 8.26172C84.5329 8.2487 84.4352 8.2487 84.3311 8.26172C84.2139 8.27474 84.0837 8.28776 83.9404 8.30078C83.8102 8.3138 83.68 8.33984 83.5498 8.37891C83.4196 8.40495 83.3024 8.44401 83.1982 8.49609C83.1071 8.54818 83.042 8.61979 83.0029 8.71094C82.9378 9.08854 82.8467 9.4401 82.7295 9.76562C82.6253 10.0911 82.5146 10.4167 82.3975 10.7422C82.3324 10.9115 82.2607 11.0938 82.1826 11.2891C82.1175 11.4844 82.124 11.6732 82.2021 11.8555C82.762 11.9466 83.3089 11.9596 83.8428 11.8945C84.3896 11.8294 84.917 11.8164 85.4248 11.8555C85.568 11.8685 85.7243 11.888 85.8936 11.9141C86.0628 11.9271 86.2191 11.9466 86.3623 11.9727C86.4665 11.9987 86.5706 12.0638 86.6748 12.168C86.792 12.2591 86.9092 12.3177 87.0264 12.3438C87.2087 12.3828 87.3844 12.3958 87.5537 12.3828C87.723 12.3568 87.8857 12.3568 88.042 12.3828C88.1592 12.4479 88.2503 12.5456 88.3154 12.6758C88.3805 12.793 88.4782 12.8906 88.6084 12.9688C88.6865 13.0339 88.7712 13.0664 88.8623 13.0664C88.9665 13.0664 89.0576 13.1055 89.1357 13.1836C89.1357 13.3789 89.1032 13.5352 89.0381 13.6523C88.973 13.7565 88.8883 13.8281 88.7842 13.8672C88.68 13.9062 88.5563 13.9258 88.4131 13.9258C88.2699 13.9258 88.1136 13.9193 87.9443 13.9062C87.71 13.8802 87.4365 13.8737 87.124 13.8867C86.8245 13.8867 86.5446 13.8932 86.2842 13.9062C86.1149 13.9062 85.9521 13.9128 85.7959 13.9258C85.6396 13.9388 85.4964 13.9323 85.3662 13.9062C85.262 13.8802 85.1644 13.8281 85.0732 13.75C84.9951 13.6589 84.891 13.6068 84.7607 13.5938C84.6436 13.5677 84.5068 13.5807 84.3506 13.6328C84.2074 13.6719 84.0641 13.7044 83.9209 13.7305C83.5042 13.8086 83.1071 13.9062 82.7295 14.0234C82.3649 14.1276 81.9938 14.2188 81.6162 14.2969C81.3558 14.8177 81.1475 15.4427 80.9912 16.1719C80.9652 16.3281 80.9391 16.4844 80.9131 16.6406C80.887 16.7969 80.8805 16.9401 80.8936 17.0703C80.9066 17.1875 80.9521 17.2852 81.0303 17.3633C81.1084 17.4414 81.2451 17.4805 81.4404 17.4805C81.6097 17.4805 81.792 17.4674 81.9873 17.4414C82.1956 17.4154 82.3975 17.3893 82.5928 17.3633C82.8011 17.3372 83.0094 17.3242 83.2178 17.3242C83.4391 17.3112 83.654 17.3307 83.8623 17.3828C83.9795 17.4089 84.0967 17.4674 84.2139 17.5586C84.3311 17.6497 84.4678 17.6888 84.624 17.6758C84.7282 17.6628 84.8258 17.6107 84.917 17.5195C85.0081 17.4154 85.1123 17.3438 85.2295 17.3047C85.3857 17.2396 85.5615 17.207 85.7568 17.207C85.9521 17.194 86.1605 17.194 86.3818 17.207C86.6032 17.207 86.8245 17.2201 87.0459 17.2461C87.2803 17.2591 87.5016 17.2656 87.71 17.2656C88.0745 17.2656 88.4652 17.2786 88.8818 17.3047C89.3115 17.3307 89.6761 17.3958 89.9756 17.5C90.0928 17.6693 90.1058 17.8385 90.0146 18.0078C89.9235 18.1771 89.7933 18.2747 89.624 18.3008C89.4678 18.5221 89.2985 18.6784 89.1162 18.7695C88.9339 18.8607 88.6865 18.9583 88.374 19.0625C88.1396 19.1276 87.9378 19.2122 87.7686 19.3164C87.5993 19.4206 87.3714 19.4792 87.085 19.4922C86.7074 19.4922 86.3298 19.4922 85.9521 19.4922C85.5745 19.4792 85.1969 19.5052 84.8193 19.5703C84.5589 19.6224 84.305 19.681 84.0576 19.7461C83.8232 19.8112 83.5758 19.8633 83.3154 19.9023C82.6644 20.0065 82.0329 20.1302 81.4209 20.2734C80.8219 20.4167 80.1774 20.5013 79.4873 20.5273C79.3441 20.5404 79.2008 20.5599 79.0576 20.5859C78.9144 20.612 78.7972 20.612 78.7061 20.5859C78.6019 20.5729 78.5173 20.5208 78.4521 20.4297C78.387 20.3385 78.3024 20.2669 78.1982 20.2148C78.1071 20.1888 78.0225 20.1693 77.9443 20.1562C77.8662 20.1432 77.7946 20.1237 77.7295 20.0977C77.6514 20.0586 77.5798 20 77.5146 19.9219C77.4495 19.8307 77.3779 19.7461 77.2998 19.668C77.2217 19.5768 77.137 19.4922 77.0459 19.4141C76.9678 19.3359 76.8962 19.2448 76.8311 19.1406C76.7139 18.9193 76.6097 18.6719 76.5186 18.3984C76.4404 18.125 76.4209 17.819 76.46 17.4805C76.486 17.2461 76.5641 17.0182 76.6943 16.7969C76.8245 16.5625 76.9222 16.3151 76.9873 16.0547C77.0394 15.8333 77.0654 15.6185 77.0654 15.4102C77.0654 15.2018 77.0915 14.987 77.1436 14.7656C77.3258 14.5703 77.4495 14.362 77.5146 14.1406C77.5928 13.9193 77.6774 13.6393 77.7686 13.3008C77.7946 13.1836 77.8337 13.0599 77.8857 12.9297C77.9378 12.7995 77.9639 12.6823 77.9639 12.5781C77.9769 12.4609 77.9574 12.3503 77.9053 12.2461C77.8662 12.1289 77.8467 12.0052 77.8467 11.875C77.8467 11.7318 77.8857 11.5625 77.9639 11.3672C78.042 11.1719 78.1136 10.9831 78.1787 10.8008C78.2438 10.5924 78.2894 10.3906 78.3154 10.1953C78.3545 10 78.4001 9.8112 78.4521 9.62891C78.4782 9.53776 78.5107 9.45964 78.5498 9.39453C78.6019 9.31641 78.641 9.23828 78.667 9.16016C78.7061 8.99089 78.7386 8.80859 78.7646 8.61328C78.7907 8.41797 78.8102 8.22266 78.8232 8.02734C78.8363 7.83203 78.8298 7.64323 78.8037 7.46094C78.7907 7.27865 78.7516 7.11589 78.6865 6.97266C78.6344 6.89453 78.5433 6.79036 78.4131 6.66016C78.2829 6.52995 78.1852 6.43229 78.1201 6.36719C78.055 6.3151 77.9769 6.26953 77.8857 6.23047C77.7946 6.19141 77.749 6.13932 77.749 6.07422C77.736 5.99609 77.7555 5.9375 77.8076 5.89844C77.8597 5.85938 77.9183 5.83333 77.9834 5.82031C78.0485 5.80729 78.1201 5.80729 78.1982 5.82031C78.2764 5.82031 78.3415 5.82031 78.3936 5.82031C78.8102 5.8724 79.2139 5.92448 79.6045 5.97656C79.9951 6.01562 80.4248 6.01562 80.8936 5.97656C80.9977 5.96354 81.1279 5.95052 81.2842 5.9375C81.4404 5.91146 81.5967 5.89193 81.7529 5.87891C81.9222 5.85286 82.0785 5.83333 82.2217 5.82031C82.3779 5.80729 82.5016 5.80729 82.5928 5.82031C82.6318 5.83333 82.6709 5.85286 82.71 5.87891C82.762 5.90495 82.8206 5.93099 82.8857 5.95703C83.1331 6.04818 83.4196 6.11979 83.7451 6.17188C84.0706 6.21094 84.4027 6.17839 84.7412 6.07422C85.249 6.13932 85.7829 6.13281 86.3428 6.05469C86.9027 5.97656 87.4626 5.92448 88.0225 5.89844C88.1657 5.88542 88.3089 5.89844 88.4521 5.9375C88.5954 5.96354 88.7451 5.98307 88.9014 5.99609C89.1227 6.02214 89.3571 6.02865 89.6045 6.01562C89.8649 6.0026 90.1253 5.98307 90.3857 5.95703C90.6071 5.93099 90.835 5.91797 91.0693 5.91797C91.3167 5.90495 91.5381 5.87891 91.7334 5.83984C91.9027 5.8138 92.0785 5.77474 92.2607 5.72266C92.4561 5.65755 92.6579 5.64453 92.8662 5.68359ZM94.8779 11.0938C95.1253 10.9245 95.3402 10.7292 95.5225 10.5078C95.7048 10.2865 95.8805 10.0651 96.0498 9.84375C96.154 9.85677 96.2451 9.83724 96.3232 9.78516C96.4014 9.73307 96.486 9.69401 96.5771 9.66797C96.7594 9.61589 96.9417 9.6224 97.124 9.6875C97.3193 9.73958 97.5081 9.75911 97.6904 9.74609C97.9118 9.72005 98.1201 9.66146 98.3154 9.57031C98.5238 9.47917 98.7646 9.43359 99.0381 9.43359C99.1292 9.43359 99.2139 9.46615 99.292 9.53125C99.3701 9.58333 99.4482 9.61589 99.5264 9.62891C99.6305 9.65495 99.7217 9.64193 99.7998 9.58984C99.891 9.53776 99.9886 9.51172 100.093 9.51172C100.275 9.51172 100.412 9.57031 100.503 9.6875C100.607 9.80469 100.724 9.92188 100.854 10.0391C100.92 10.3385 100.926 10.6315 100.874 10.918C100.822 11.2044 100.809 11.4974 100.835 11.7969C100.861 11.9922 100.887 12.181 100.913 12.3633C100.952 12.5456 100.972 12.7344 100.972 12.9297C100.985 13.099 100.972 13.2812 100.933 13.4766C100.907 13.6589 100.9 13.8411 100.913 14.0234C100.926 14.0885 100.946 14.1536 100.972 14.2188C100.998 14.2839 101.004 14.349 100.991 14.4141C100.965 14.5573 100.907 14.668 100.815 14.7461C100.724 14.8242 100.672 14.9284 100.659 15.0586C100.633 15.2539 100.672 15.4362 100.776 15.6055C100.894 15.7747 100.965 15.9505 100.991 16.1328C101.004 16.2109 100.998 16.2956 100.972 16.3867C100.946 16.4779 100.933 16.5625 100.933 16.6406C100.907 16.9271 100.907 17.2461 100.933 17.5977C100.972 17.9492 100.998 18.2747 101.011 18.5742C101.011 18.6784 101.017 18.7826 101.03 18.8867C101.056 18.9909 101.056 19.0755 101.03 19.1406C101.017 19.2057 100.985 19.2578 100.933 19.2969C100.894 19.3359 100.861 19.3815 100.835 19.4336C100.822 19.4987 100.822 19.5898 100.835 19.707C100.861 19.8242 100.874 19.9349 100.874 20.0391C100.874 20.1302 100.868 20.2148 100.854 20.293C100.841 20.3841 100.835 20.4622 100.835 20.5273C100.848 20.5664 100.861 20.6055 100.874 20.6445C100.9 20.6966 100.907 20.7422 100.894 20.7812C100.868 20.8984 100.776 21.0221 100.62 21.1523C100.477 21.2956 100.327 21.3607 100.171 21.3477C100.093 21.3346 99.9756 21.2695 99.8193 21.1523C99.6761 21.0482 99.5719 20.9635 99.5068 20.8984C99.3896 20.7552 99.318 20.5729 99.292 20.3516C99.266 20.1302 99.2074 19.9284 99.1162 19.7461C99.0771 19.681 99.0186 19.6224 98.9404 19.5703C98.8753 19.5052 98.8167 19.4336 98.7646 19.3555C98.6865 19.2122 98.6344 19.069 98.6084 18.9258C98.5824 18.7695 98.5628 18.6198 98.5498 18.4766C98.5498 18.3203 98.5433 18.1706 98.5303 18.0273C98.5173 17.8711 98.4847 17.7148 98.4326 17.5586C98.4066 17.5065 98.3675 17.4609 98.3154 17.4219C98.2633 17.3828 98.2178 17.3307 98.1787 17.2656C98.1006 17.1354 98.0485 17.0247 98.0225 16.9336C97.9964 16.8424 97.9118 16.7708 97.7686 16.7188C97.3128 16.7188 96.8506 16.7057 96.3818 16.6797C95.9261 16.6536 95.4769 16.6667 95.0342 16.7188C94.93 16.7318 94.8389 16.7578 94.7607 16.7969C94.6826 16.8229 94.5915 16.8424 94.4873 16.8555C94.4352 16.8555 94.3831 16.849 94.3311 16.8359C94.279 16.8229 94.2334 16.8164 94.1943 16.8164C94.012 16.8424 93.8363 16.9271 93.667 17.0703C93.4977 17.2005 93.3675 17.3307 93.2764 17.4609C93.2243 17.5391 93.1917 17.6367 93.1787 17.7539C93.1787 17.8581 93.1592 17.9622 93.1201 18.0664C93.0811 18.1706 93.016 18.2682 92.9248 18.3594C92.8337 18.4375 92.8011 18.5417 92.8271 18.6719C92.6839 18.776 92.5602 18.9062 92.4561 19.0625C92.3649 19.2188 92.2738 19.3815 92.1826 19.5508C92.0915 19.707 91.9873 19.8568 91.8701 20C91.766 20.1432 91.6357 20.2474 91.4795 20.3125C91.4144 20.3385 91.3493 20.3711 91.2842 20.4102C91.2321 20.4492 91.1735 20.4688 91.1084 20.4688C91.0433 20.4557 91.0042 20.4362 90.9912 20.4102C90.9912 20.3841 90.9521 20.3451 90.874 20.293C90.7959 20.2409 90.7048 20.1823 90.6006 20.1172C90.4834 20.0521 90.3727 19.9805 90.2686 19.9023C90.1644 19.8242 90.0732 19.7461 89.9951 19.668C89.904 19.5768 89.8389 19.4922 89.7998 19.4141C89.6956 19.1927 89.6761 19.0365 89.7412 18.9453C89.8063 18.8411 89.891 18.7174 89.9951 18.5742C90.1383 18.3659 90.3011 18.1315 90.4834 17.8711C90.6657 17.6107 90.8285 17.3633 90.9717 17.1289C91.0498 16.9987 91.1149 16.875 91.167 16.7578C91.2321 16.6406 91.3102 16.5299 91.4014 16.4258C91.5055 16.2826 91.6357 16.1654 91.792 16.0742C91.9613 15.9831 92.0785 15.8659 92.1436 15.7227C92.1696 15.6576 92.1826 15.5924 92.1826 15.5273C92.1826 15.4492 92.1956 15.3711 92.2217 15.293C92.3258 15.0326 92.4886 14.7982 92.71 14.5898C92.9313 14.3815 93.1006 14.1471 93.2178 13.8867C93.2438 13.8216 93.2568 13.763 93.2568 13.7109C93.2699 13.6458 93.2894 13.5807 93.3154 13.5156C93.5238 13.0339 93.7777 12.6042 94.0771 12.2266C94.3896 11.849 94.6566 11.4714 94.8779 11.0938ZM97.6123 11.0352C97.4561 11.1523 97.3193 11.2891 97.2021 11.4453C97.098 11.5885 96.9548 11.6992 96.7725 11.7773C96.7204 11.8945 96.6553 12.0052 96.5771 12.1094C96.512 12.2135 96.4209 12.2982 96.3037 12.3633C96.2646 12.5716 96.1865 12.7539 96.0693 12.9102C95.9521 13.0534 95.8415 13.1966 95.7373 13.3398C95.6852 13.3919 95.6396 13.4505 95.6006 13.5156C95.5615 13.5677 95.516 13.6263 95.4639 13.6914C95.3988 13.7565 95.3337 13.8086 95.2686 13.8477C95.2035 13.8737 95.1449 13.9128 95.0928 13.9648C95.0146 14.069 94.93 14.2122 94.8389 14.3945C94.7477 14.5768 94.6631 14.7266 94.585 14.8438C94.5199 14.9089 94.4548 14.974 94.3896 15.0391C94.3245 15.1042 94.305 15.1888 94.3311 15.293C94.3701 15.3971 94.4482 15.4688 94.5654 15.5078C94.6826 15.5339 94.8128 15.5534 94.9561 15.5664C95.1123 15.5664 95.262 15.5599 95.4053 15.5469C95.5485 15.5339 95.6657 15.5273 95.7568 15.5273C95.9391 15.5273 96.1214 15.5339 96.3037 15.5469C96.499 15.5469 96.6813 15.5404 96.8506 15.5273C97.0329 15.5143 97.1891 15.4818 97.3193 15.4297C97.4626 15.3776 97.5732 15.2995 97.6514 15.1953C97.7816 14.7786 97.8141 14.362 97.749 13.9453C97.6839 13.5156 97.6253 13.0924 97.5732 12.6758C97.5472 12.5586 97.5277 12.4284 97.5146 12.2852C97.5016 12.1419 97.5016 12.0117 97.5146 11.8945C97.5277 11.7643 97.5667 11.6406 97.6318 11.5234C97.71 11.3932 97.723 11.2435 97.6709 11.0742L97.6123 11.0352ZM109.351 11.8359C109.468 11.888 109.546 11.9596 109.585 12.0508C109.624 12.1289 109.65 12.2135 109.663 12.3047C109.689 12.3958 109.715 12.487 109.741 12.5781C109.767 12.6693 109.832 12.7409 109.937 12.793C109.963 12.819 110.008 12.8516 110.073 12.8906C110.138 12.9297 110.21 12.9753 110.288 13.0273C110.366 13.0664 110.438 13.1055 110.503 13.1445C110.581 13.1706 110.64 13.1771 110.679 13.1641C110.757 13.151 110.828 13.0924 110.894 12.9883C110.959 12.8841 111.011 12.7669 111.05 12.6367C111.102 12.4935 111.134 12.3503 111.147 12.207C111.16 12.0638 111.154 11.9466 111.128 11.8555C111.102 11.8164 111.03 11.7643 110.913 11.6992C110.796 11.6211 110.705 11.569 110.64 11.543C110.457 11.4779 110.288 11.3997 110.132 11.3086C109.976 11.2174 109.806 11.1393 109.624 11.0742C109.546 11.0482 109.461 11.0091 109.37 10.957C109.292 10.8919 109.214 10.8594 109.136 10.8594C109.084 10.8464 109.025 10.8594 108.96 10.8984C108.895 10.9245 108.83 10.9375 108.765 10.9375C108.687 10.9505 108.589 10.957 108.472 10.957C108.368 10.944 108.257 10.944 108.14 10.957C108.022 10.9701 107.899 10.9896 107.769 11.0156C107.651 11.0417 107.547 11.0872 107.456 11.1523C107.287 11.2956 107.163 11.4583 107.085 11.6406C107.02 11.8099 106.929 12.0052 106.812 12.2266C106.785 12.2786 106.74 12.3372 106.675 12.4023C106.61 12.4674 106.577 12.5456 106.577 12.6367C106.577 12.6888 106.597 12.7344 106.636 12.7734C106.688 12.8125 106.727 12.8711 106.753 12.9492C106.792 13.0273 106.818 13.112 106.831 13.2031C106.844 13.2812 106.864 13.3529 106.89 13.418C106.929 13.457 106.968 13.4961 107.007 13.5352C107.046 13.5612 107.078 13.5872 107.104 13.6133C107.144 13.6523 107.17 13.6979 107.183 13.75C107.209 13.8021 107.241 13.8411 107.28 13.8672C107.345 13.9062 107.456 13.9779 107.612 14.082C107.782 14.1732 107.938 14.2318 108.081 14.2578C108.328 14.3099 108.55 14.3945 108.745 14.5117C108.953 14.6159 109.155 14.707 109.351 14.7852C109.494 14.8503 109.604 14.9284 109.683 15.0195C109.774 15.0977 109.852 15.1823 109.917 15.2734C109.982 15.3516 110.047 15.4297 110.112 15.5078C110.19 15.5859 110.295 15.6445 110.425 15.6836C110.49 15.7096 110.549 15.7227 110.601 15.7227C110.653 15.7227 110.711 15.7357 110.776 15.7617C110.841 15.7878 110.907 15.8333 110.972 15.8984C111.037 15.9505 111.108 16.0091 111.187 16.0742C111.239 16.1263 111.284 16.1849 111.323 16.25C111.375 16.3021 111.414 16.3542 111.44 16.4062C111.479 16.4844 111.506 16.5885 111.519 16.7188C111.532 16.8359 111.538 16.9336 111.538 17.0117C111.551 17.3242 111.545 17.5716 111.519 17.7539C111.493 17.9362 111.447 18.1055 111.382 18.2617C111.317 18.418 111.232 18.5742 111.128 18.7305C111.037 18.8867 110.933 19.0885 110.815 19.3359C110.646 19.4141 110.47 19.5052 110.288 19.6094C110.106 19.7005 109.95 19.7982 109.819 19.9023C109.754 19.9544 109.663 20.0195 109.546 20.0977C109.429 20.1758 109.325 20.2279 109.233 20.2539C109.051 20.319 108.83 20.3581 108.569 20.3711C108.309 20.3841 108.068 20.4297 107.847 20.5078C107.716 20.5469 107.56 20.5534 107.378 20.5273C107.209 20.5013 107.052 20.4948 106.909 20.5078C106.74 20.5339 106.597 20.5599 106.479 20.5859C106.362 20.625 106.226 20.6315 106.069 20.6055C105.887 20.5794 105.685 20.5078 105.464 20.3906C105.243 20.2865 105.047 20.1823 104.878 20.0781C104.813 20.0521 104.761 20.0195 104.722 19.9805C104.683 19.9284 104.631 19.8828 104.565 19.8438C104.474 19.7917 104.383 19.7591 104.292 19.7461C104.201 19.7201 104.116 19.6745 104.038 19.6094C103.96 19.5443 103.888 19.4857 103.823 19.4336C103.758 19.3685 103.693 19.3034 103.628 19.2383C103.472 19.1341 103.296 19.0299 103.101 18.9258C102.918 18.8086 102.788 18.6914 102.71 18.5742C102.658 18.5091 102.625 18.4245 102.612 18.3203C102.612 18.2031 102.586 18.0924 102.534 17.9883C102.508 17.8971 102.463 17.819 102.397 17.7539C102.332 17.6888 102.293 17.6237 102.28 17.5586C102.241 17.3763 102.261 17.1745 102.339 16.9531C102.417 16.7318 102.489 16.543 102.554 16.3867C102.801 16.3477 103.003 16.3737 103.159 16.4648C103.328 16.543 103.472 16.6536 103.589 16.7969C103.706 16.9401 103.81 17.1029 103.901 17.2852C103.993 17.4544 104.084 17.6042 104.175 17.7344C104.279 17.9036 104.442 18.0339 104.663 18.125C104.884 18.2161 105.099 18.3073 105.308 18.3984C105.386 18.4375 105.457 18.4766 105.522 18.5156C105.601 18.5417 105.672 18.5677 105.737 18.5938C105.907 18.6589 106.05 18.7305 106.167 18.8086C106.297 18.8737 106.434 18.9128 106.577 18.9258C106.707 18.9258 106.831 18.9193 106.948 18.9062C107.078 18.8802 107.222 18.8542 107.378 18.8281C107.534 18.776 107.69 18.7565 107.847 18.7695C108.003 18.7695 108.153 18.737 108.296 18.6719C108.465 18.6068 108.563 18.5286 108.589 18.4375C108.615 18.3464 108.674 18.2227 108.765 18.0664C108.713 17.819 108.654 17.6432 108.589 17.5391C108.524 17.4349 108.407 17.3112 108.237 17.168C108.172 17.1159 108.094 17.0768 108.003 17.0508C107.925 17.0117 107.853 16.9727 107.788 16.9336C107.515 16.7643 107.215 16.5951 106.89 16.4258C106.564 16.2565 106.206 16.1393 105.815 16.0742C105.568 15.9961 105.308 15.8919 105.034 15.7617C104.774 15.6185 104.585 15.4297 104.468 15.1953C104.429 15.1432 104.403 15.0911 104.39 15.0391C104.39 14.987 104.377 14.9284 104.351 14.8633C104.246 14.6029 104.097 14.3555 103.901 14.1211C103.719 13.8867 103.595 13.6198 103.53 13.3203C103.504 13.2292 103.498 13.138 103.511 13.0469C103.524 12.9427 103.537 12.8451 103.55 12.7539C103.576 12.6628 103.595 12.5651 103.608 12.4609C103.621 12.3568 103.615 12.2461 103.589 12.1289C103.641 12.0768 103.674 12.0247 103.687 11.9727C103.7 11.9206 103.719 11.8685 103.745 11.8164C103.797 11.7383 103.83 11.6602 103.843 11.582C103.869 11.4909 103.927 11.4062 104.019 11.3281C104.11 11.25 104.181 11.1719 104.233 11.0938C104.299 11.0026 104.364 10.931 104.429 10.8789C104.468 10.8529 104.513 10.8398 104.565 10.8398C104.618 10.8268 104.663 10.8073 104.702 10.7812C104.767 10.7422 104.826 10.6966 104.878 10.6445C104.93 10.5794 104.989 10.5208 105.054 10.4688C105.314 10.2734 105.607 10.1107 105.933 9.98047C106.258 9.83724 106.59 9.72656 106.929 9.64844C106.981 9.58333 107.065 9.53125 107.183 9.49219C107.3 9.4401 107.424 9.40755 107.554 9.39453C107.697 9.36849 107.834 9.34896 107.964 9.33594C108.094 9.32292 108.205 9.3099 108.296 9.29688C108.7 9.34896 109.019 9.41406 109.253 9.49219C109.5 9.57031 109.728 9.65495 109.937 9.74609C110.158 9.82422 110.392 9.90234 110.64 9.98047C110.887 10.0586 111.206 10.1237 111.597 10.1758C111.753 10.293 111.916 10.4362 112.085 10.6055C112.267 10.7617 112.424 10.9375 112.554 11.1328C112.684 11.3281 112.775 11.5365 112.827 11.7578C112.892 11.9661 112.879 12.181 112.788 12.4023C112.723 12.5326 112.671 12.6823 112.632 12.8516C112.593 13.0078 112.534 13.151 112.456 13.2812C112.391 13.3854 112.319 13.5091 112.241 13.6523C112.176 13.7956 112.098 13.9128 112.007 14.0039C111.825 14.1862 111.59 14.3164 111.304 14.3945C111.017 14.4727 110.737 14.4987 110.464 14.4727C110.386 14.3424 110.262 14.2318 110.093 14.1406C109.937 14.0495 109.774 13.9583 109.604 13.8672C109.448 13.763 109.299 13.6523 109.155 13.5352C109.025 13.4049 108.94 13.2487 108.901 13.0664C108.862 12.8451 108.869 12.6107 108.921 12.3633C108.986 12.1159 109.129 11.9401 109.351 11.8359ZM123.159 10.8789C122.808 11.0482 122.456 11.1328 122.104 11.1328C121.753 11.1328 121.362 11.1198 120.933 11.0938C120.815 11.0938 120.685 11.1003 120.542 11.1133C120.412 11.1263 120.288 11.1393 120.171 11.1523C119.559 11.2174 119.045 11.4518 118.628 11.8555C118.211 12.2461 117.905 12.7409 117.71 13.3398C117.645 13.5612 117.593 13.763 117.554 13.9453C117.515 14.1276 117.599 14.2318 117.808 14.2578C117.938 14.2839 118.068 14.2839 118.198 14.2578C118.328 14.2318 118.459 14.1992 118.589 14.1602C118.732 14.1081 118.869 14.0625 118.999 14.0234C119.129 13.9844 119.259 13.9648 119.39 13.9648C119.442 13.9648 119.487 13.9779 119.526 14.0039C119.578 14.0299 119.631 14.043 119.683 14.043C119.904 14.069 120.138 14.056 120.386 14.0039C120.633 13.9388 120.861 13.9323 121.069 13.9844C121.108 13.9974 121.141 14.0234 121.167 14.0625C121.206 14.0885 121.258 14.1146 121.323 14.1406C121.493 14.2057 121.694 14.2513 121.929 14.2773C122.163 14.2904 122.352 14.3294 122.495 14.3945C122.56 14.4206 122.625 14.4727 122.69 14.5508C122.756 14.6159 122.788 14.6615 122.788 14.6875C122.788 14.8307 122.703 14.9219 122.534 14.9609C122.365 15 122.222 15.026 122.104 15.0391C122 15.0521 121.896 15.0521 121.792 15.0391C121.688 15.026 121.584 15.0326 121.479 15.0586C121.297 15.0846 121.121 15.1237 120.952 15.1758C120.783 15.2148 120.601 15.2669 120.405 15.332C120.184 15.4102 119.976 15.5078 119.78 15.625C119.585 15.7292 119.37 15.7943 119.136 15.8203C118.966 15.8464 118.804 15.8464 118.647 15.8203C118.491 15.7943 118.322 15.7943 118.14 15.8203C118.075 15.8333 118.009 15.8529 117.944 15.8789C117.892 15.9049 117.834 15.9245 117.769 15.9375C117.651 15.9635 117.56 15.9831 117.495 15.9961C117.443 15.9961 117.397 16.0091 117.358 16.0352C117.332 16.0612 117.3 16.1003 117.261 16.1523C117.235 16.2044 117.189 16.2826 117.124 16.3867C117.02 16.6211 116.955 16.875 116.929 17.1484C116.903 17.4089 116.877 17.6888 116.851 17.9883C116.994 18.1315 117.131 18.2487 117.261 18.3398C117.391 18.418 117.593 18.457 117.866 18.457C118.009 18.457 118.12 18.444 118.198 18.418C118.289 18.3789 118.407 18.3529 118.55 18.3398C118.693 18.3398 118.836 18.3529 118.979 18.3789C119.123 18.3919 119.285 18.3919 119.468 18.3789C119.845 18.3529 120.164 18.3073 120.425 18.2422C120.685 18.1641 121.004 18.138 121.382 18.1641C121.46 18.1641 121.597 18.1706 121.792 18.1836C122 18.1966 122.209 18.2161 122.417 18.2422C122.625 18.2552 122.808 18.2812 122.964 18.3203C123.133 18.3594 123.218 18.4115 123.218 18.4766C123.218 18.5547 123.166 18.6393 123.062 18.7305C122.97 18.8086 122.86 18.8867 122.729 18.9648C122.612 19.0299 122.489 19.0885 122.358 19.1406C122.241 19.1797 122.163 19.2057 122.124 19.2188C121.903 19.2839 121.688 19.3034 121.479 19.2773C121.271 19.2383 121.043 19.2318 120.796 19.2578C120.614 19.2839 120.451 19.3229 120.308 19.375C120.164 19.4271 120.021 19.4857 119.878 19.5508C119.735 19.6029 119.585 19.6615 119.429 19.7266C119.285 19.7786 119.116 19.8112 118.921 19.8242C118.66 19.8503 118.439 19.8828 118.257 19.9219C118.075 19.9479 117.86 19.987 117.612 20.0391C117.508 20.0651 117.41 20.0911 117.319 20.1172C117.228 20.1562 117.131 20.1888 117.026 20.2148C116.649 20.293 116.239 20.306 115.796 20.2539C115.366 20.2148 114.897 20.2214 114.39 20.2734C114.064 20.3125 113.771 20.3581 113.511 20.4102C113.263 20.4753 113.009 20.4948 112.749 20.4688C112.658 20.4557 112.573 20.4427 112.495 20.4297C112.404 20.4297 112.326 20.3971 112.261 20.332C112.287 20.2279 112.345 20.1367 112.437 20.0586C112.528 19.9805 112.619 19.9089 112.71 19.8438C112.801 19.7656 112.886 19.6875 112.964 19.6094C113.055 19.5182 113.14 19.4336 113.218 19.3555C113.296 19.2513 113.361 19.1276 113.413 18.9844C113.465 18.8281 113.511 18.6719 113.55 18.5156C113.602 18.3594 113.654 18.2161 113.706 18.0859C113.771 17.9427 113.849 17.819 113.94 17.7148C113.836 17.4805 113.836 17.2135 113.94 16.9141C114.058 16.6146 114.162 16.3021 114.253 15.9766C114.279 15.8984 114.292 15.8203 114.292 15.7422C114.292 15.6641 114.305 15.5924 114.331 15.5273C114.357 15.3971 114.416 15.2865 114.507 15.1953C114.598 15.0911 114.657 14.987 114.683 14.8828C114.696 14.8177 114.696 14.7526 114.683 14.6875C114.683 14.6224 114.689 14.5573 114.702 14.4922C114.728 14.2969 114.774 14.1146 114.839 13.9453C114.917 13.763 114.969 13.6003 114.995 13.457C115.021 13.3529 115.021 13.2487 114.995 13.1445C114.982 13.0273 114.982 12.9167 114.995 12.8125C115.021 12.5521 115.073 12.3047 115.151 12.0703C115.243 11.8359 115.295 11.6276 115.308 11.4453C115.321 11.3021 115.301 11.1458 115.249 10.9766C115.197 10.8073 115.145 10.6771 115.093 10.5859C115.054 10.5208 114.995 10.4557 114.917 10.3906C114.839 10.3125 114.761 10.2409 114.683 10.1758C114.604 10.1107 114.533 10.0521 114.468 10C114.416 9.9349 114.39 9.8763 114.39 9.82422C114.403 9.68099 114.461 9.60938 114.565 9.60938C114.67 9.59635 114.767 9.55078 114.858 9.47266C115.327 9.48568 115.77 9.53776 116.187 9.62891C116.616 9.72005 117.059 9.77865 117.515 9.80469C117.684 9.83073 117.86 9.83073 118.042 9.80469C118.224 9.76562 118.4 9.73958 118.569 9.72656C118.843 9.71354 119.149 9.7526 119.487 9.84375C119.839 9.9349 120.184 9.96745 120.522 9.94141C120.978 9.91536 121.408 9.90234 121.812 9.90234C122.215 9.90234 122.638 9.88932 123.081 9.86328C123.159 9.92839 123.276 9.96094 123.433 9.96094C123.589 9.94792 123.745 9.9349 123.901 9.92188C124.071 9.89583 124.22 9.88932 124.351 9.90234C124.494 9.91536 124.591 9.97396 124.644 10.0781C124.722 10.2604 124.709 10.4167 124.604 10.5469C124.5 10.6771 124.357 10.7617 124.175 10.8008C124.123 10.8008 124.051 10.8073 123.96 10.8203C123.869 10.8333 123.771 10.8464 123.667 10.8594C123.563 10.8724 123.459 10.8789 123.354 10.8789C123.263 10.8789 123.198 10.8789 123.159 10.8789Z" fill="#F02222"/>
</svg>
