<svg width="47" height="30" viewBox="0 0 47 30" fill="none" xmlns="http://www.w3.org/2000/svg">
<rect width="30" height="0" transform="translate(15 6)" fill="#1A1616"/>
<path d="M46.1121 8.70711C46.5026 8.31658 46.5026 7.68342 46.1121 7.29289L39.7482 0.928932C39.3576 0.538408 38.7245 0.538408 38.3339 0.928932C37.9434 1.31946 37.9434 1.95262 38.3339 2.34315L43.9908 8L38.3339 13.6569C37.9434 14.0474 37.9434 14.6805 38.3339 15.0711C38.7245 15.4616 39.3576 15.4616 39.7482 15.0711L46.1121 8.70711ZM16.2158 9H45.405V7H16.2158V9Z" fill="#F2E9E9"/>
<path d="M0.292892 21.2929C-0.0976295 21.6834 -0.0976295 22.3166 0.292892 22.7071L6.65685 29.0711C7.04738 29.4616 7.68054 29.4616 8.07107 29.0711C8.46159 28.6805 8.46159 28.0474 8.07107 27.6569L2.41422 22L8.07107 16.3431C8.46159 15.9526 8.46159 15.3195 8.07107 14.9289C7.68054 14.5384 7.04738 14.5384 6.65685 14.9289L0.292892 21.2929ZM40 21L1 21V23L40 23V21Z" fill="#F2E9E9"/>
</svg>
