<svg width="26" height="26" viewBox="0 0 26 26" fill="none" xmlns="http://www.w3.org/2000/svg">
<path d="M23.6225 10.8781H22.7498V10.8332H12.9998V15.1665H19.1223C18.2291 17.689 15.829 19.4998 12.9998 19.4998C9.41021 19.4998 6.49984 16.5895 6.49984 12.9998C6.49984 9.41021 9.41021 6.49984 12.9998 6.49984C14.6568 6.49984 16.1643 7.12492 17.312 8.14596L20.3763 5.08175C18.4414 3.27855 15.8533 2.1665 12.9998 2.1665C7.01713 2.1665 2.1665 7.01713 2.1665 12.9998C2.1665 18.9825 7.01713 23.8332 12.9998 23.8332C18.9825 23.8332 23.8332 18.9825 23.8332 12.9998C23.8332 12.2735 23.7584 11.5644 23.6225 10.8781Z" fill="#FFC107"/>
<path d="M3.41553 7.95746L6.97482 10.5678C7.9379 8.18334 10.2703 6.49984 12.9998 6.49984C14.6567 6.49984 16.1642 7.12492 17.312 8.14596L20.3762 5.08175C18.4414 3.27855 15.8533 2.1665 12.9998 2.1665C8.83869 2.1665 5.23011 4.51571 3.41553 7.95746Z" fill="#FF3D00"/>
<path d="M12.9998 23.8332C15.7981 23.8332 18.3407 22.7623 20.2631 21.0209L16.9101 18.1836C15.7859 19.0386 14.4122 19.501 12.9998 19.4999C10.1821 19.4999 7.78955 17.7032 6.88822 15.1958L3.35547 17.9177C5.14839 21.426 8.78947 23.8332 12.9998 23.8332Z" fill="#4CAF50"/>
<path d="M23.6226 10.8785H22.75V10.8335H13V15.1668H19.1225C18.6952 16.3674 17.9256 17.4165 16.9087 18.1845L16.9103 18.1834L20.2632 21.0206C20.026 21.2362 23.8333 18.4168 23.8333 13.0002C23.8333 12.2738 23.7586 11.5647 23.6226 10.8785Z" fill="#1976D2"/>
</svg>
