<svg width="203" height="48" viewBox="0 0 203 48" fill="none" xmlns="http://www.w3.org/2000/svg">
<path d="M201.712 8.88026C202.107 8.49361 202.113 7.86048 201.726 7.46612L195.425 1.03967C195.039 0.64531 194.406 0.639062 194.011 1.02571C193.617 1.41237 193.611 2.0455 193.997 2.43986L199.598 8.15226L193.886 13.753C193.491 14.1397 193.485 14.7728 193.872 15.1672C194.258 15.5615 194.892 15.5678 195.286 15.1811L201.712 8.88026ZM65.9765 7.83369L201.002 9.16616L201.022 7.16626L65.9962 5.83379L65.9765 7.83369Z" fill="#F02222"/>
<path d="M0.290728 40.7051C-0.0986947 40.3135 -0.0969211 39.6803 0.294689 39.2909L6.67646 32.9448C7.06807 32.5553 7.70123 32.5571 8.09067 32.9487C8.48009 33.3403 8.47832 33.9735 8.08671 34.3629L2.41402 40.0039L8.05502 45.6766C8.44444 46.0682 8.44267 46.7014 8.05105 47.0908C7.65943 47.4802 7.02627 47.4785 6.63685 47.0868L0.290728 40.7051ZM200.996 41.5602L0.997012 41L1.00261 39L201.002 39.5602L200.996 41.5602Z" fill="#F02222"/>
</svg>
